<?xml version="1.0" standalone="no"?>
<!DOCTYPE svg PUBLIC "-//W3C//DTD SVG 20010904//EN"
 "http://www.w3.org/TR/2001/REC-SVG-20010904/DTD/svg10.dtd">
<svg version="1.0" xmlns="http://www.w3.org/2000/svg"
 width="225.000000pt" height="225.000000pt" viewBox="0 0 225.000000 225.000000"
 preserveAspectRatio="xMidYMid meet">
<metadata>
Created by potrace 1.15, written by Peter Selinger 2001-2017
</metadata>
<g transform="translate(0.000000,225.000000) scale(0.100000,-0.100000)"
fill="#000000" stroke="none">
<path d="M1450 2100 c-155 -19 -293 -107 -382 -244 -83 -128 -103 -303 -52
-454 l25 -76 -405 -405 c-223 -223 -410 -419 -416 -434 -17 -47 -12 -101 13
-138 64 -96 180 -107 256 -25 14 14 32 26 40 26 9 0 61 -45 116 -100 141 -141
126 -144 332 62 88 90 164 173 168 185 9 34 -15 69 -114 168 -50 49 -91 94
-91 100 0 6 74 84 164 174 131 130 169 162 183 156 217 -91 446 -50 602 106
206 206 206 542 0 748 -114 114 -278 171 -439 151z m161 -348 c43 -22 59 -38
81 -81 18 -34 28 -69 28 -96 0 -27 -10 -62 -28 -96 -62 -119 -217 -144 -316
-51 -106 100 -76 270 59 333 58 27 113 24 176 -9z"/>
</g>
</svg>
