<?xml version="1.0" standalone="no"?>
<!DOCTYPE svg PUBLIC "-//W3C//DTD SVG 20010904//EN"
 "http://www.w3.org/TR/2001/REC-SVG-20010904/DTD/svg10.dtd">
<svg version="1.0" xmlns="http://www.w3.org/2000/svg"
 width="120.000000pt" height="110.000000pt" viewBox="0 0 120.000000 110.000000"
 preserveAspectRatio="xMidYMid meet">
<metadata>
Created by potrace 1.15, written by Peter Selinger 2001-2017
</metadata>
<g transform="translate(0.000000,110.000000) scale(0.100000,-0.100000)"
fill="#000000" stroke="none">
<path d="M100 830 l0 -170 170 0 170 0 0 170 0 170 -170 0 -170 0 0 -170z
m268 -2 l-3 -93 -92 -3 -93 -3 0 96 0 95 95 0 96 0 -3 -92z"/>
<path d="M214 877 l-5 -15 3 -43 3 -44 58 -3 58 -3 -3 58 -3 58 -53 3 -52 3
-6 -14z"/>
<path d="M520 960 l0 -40 35 0 35 0 0 -35 0 -35 -35 0 -35 0 0 -75 0 -75 35 0
35 0 0 -60 0 -60 -170 0 -170 0 0 -35 0 -35 -35 0 -35 0 0 35 0 35 -40 0 -40
0 0 -35 0 -35 40 0 40 0 0 -40 0 -40 75 0 75 0 0 40 0 40 35 0 35 0 0 -40 0
-40 95 0 95 0 0 40 0 40 40 0 40 0 0 -40 0 -40 55 0 55 0 0 40 0 40 40 0 40 0
0 -40 0 -40 110 0 110 0 0 40 0 40 -35 0 -35 0 0 35 0 35 -40 0 -40 0 0 -35 0
-35 -35 0 -35 0 0 35 0 35 -95 0 -95 0 0 60 0 60 -40 0 -40 0 0 35 0 35 40 0
40 0 0 75 0 75 -40 0 -40 0 0 40 0 40 -35 0 -35 0 0 -40z"/>
<path d="M740 830 l0 -170 170 0 170 0 0 170 0 170 -170 0 -170 0 0 -170z
m268 -2 l-3 -93 -92 -3 -93 -3 0 96 0 95 95 0 96 0 -3 -92z"/>
<path d="M860 830 l0 -60 55 0 55 0 0 60 0 60 -55 0 -55 0 0 -60z"/>
<path d="M520 355 l0 -35 35 0 35 0 0 -40 0 -40 -35 0 -35 0 0 -75 0 -75 35 0
35 0 0 -35 0 -35 40 0 40 0 0 35 0 35 -40 0 -40 0 0 40 0 40 75 0 75 0 0 -75
0 -75 40 0 40 0 0 35 0 35 40 0 40 0 0 40 0 40 15 0 15 0 0 -40 0 -40 -15 0
-15 0 0 -35 0 -35 35 0 35 0 0 35 0 35 20 0 20 0 0 -35 0 -35 35 0 35 0 0 35
0 35 -35 0 -35 0 0 40 0 40 35 0 35 0 0 75 0 75 -35 0 -35 0 0 35 0 35 -135 0
-135 0 0 -35 0 -35 -75 0 -75 0 0 35 0 35 -35 0 -35 0 0 -35z m375 -75 l0 -35
-37 -3 -38 -3 0 -35 0 -34 -40 0 -40 0 0 35 0 35 40 0 40 0 0 41 0 40 38 -3
37 -3 0 -35z"/>
<path d="M100 190 l0 -170 170 0 170 0 0 170 0 170 -170 0 -170 0 0 -170z
m268 -2 l-3 -93 -92 -3 -93 -3 0 96 0 95 95 0 96 0 -3 -92z"/>
<path d="M210 185 l0 -55 60 0 60 0 0 55 0 55 -60 0 -60 0 0 -55z"/>
</g>
</svg>
